<?xml version="1.0" encoding="UTF-8"?>
<svg id="Layer_1" data-name="Layer 1" xmlns="http://www.w3.org/2000/svg" viewBox="0 0 298.77 35.14">
  <path d="m2.02,25.11v-15.07C2.02,6,1.78,3.46,0,.77h22.18v6.67h-.14c-.86-2.06-3.17-6.29-8.11-6.29-6.19,0-7.73,3.98-7.73,6.91,0,5.76,4.46,8.26,9.07,8.26,1.15,0,2.3-.14,3.41-.48v4.03c-5.9-.62-11.04-3.79-12.48-8.98v14.21c0,4.03.24,6.58,2.02,9.26H0c1.78-2.69,2.02-5.23,2.02-9.26Z"/>
  <path d="m28.99,25.11V8.59c0-4.03-.24-6.19-2.02-7.82h8.21c-1.78,1.58-2.02,3.79-2.02,7.82v25.3c11.33-.29,14.5-3.65,15.75-6.77h.14v7.25h-22.08c1.78-2.69,2.02-5.23,2.02-9.26Z"/>
  <path d="m51.7,17.57C51.7,7.2,60.34,0,69.31,0c10.42,0,17.52,8.69,17.52,17.62,0,10.32-8.3,17.52-17.19,17.52-10.71,0-17.95-8.54-17.95-17.57Zm19.73,16.8c6.72,0,11.18-5.81,11.18-13.63,0-8.74-6.29-19.97-15.51-19.97-6.34,0-11.14,5.86-11.14,13.63,0,8.78,6.43,19.97,15.46,19.97Z"/>
  <path d="m92.93,25.44v-15.79c0-4.03-.24-6.48-2.02-8.88h12.38c6.82,0,11.19,3.74,11.19,9.27s-4.13,8.4-8.35,8.74c-.62.1-1.25.1-1.87.05l3.79,7.73c2.11,4.27,3.89,6.77,6.24,7.82h-9.22c.43-.53.62-1.15.62-1.87,0-1.06-.48-2.45-1.34-4.22l-7.25-14.88v12.05c0,4.03.24,6.53,2.02,8.93h-8.21c1.78-2.4,2.02-4.9,2.02-8.93Zm11.23-7.06c4.75,0,6.24-3.7,6.24-8.4s-2.06-8.83-7.1-8.83-6.24,3.55-6.24,7.78c0,5.9,3.17,9.46,7.1,9.46Z"/>
  <path d="m123.34,25.11v-15.07c0-4.03-.24-6.58-2.02-9.27h22.18v6.67h-.14c-.86-2.06-3.17-6.29-8.11-6.29-6.19,0-7.73,3.98-7.73,6.91,0,5.76,4.46,8.26,9.07,8.26,1.15,0,2.3-.14,3.41-.48v4.03c-5.9-.62-11.04-3.79-12.48-8.98v22.99h.1c12,0,15.84-3.55,17.09-6.77h.14v7.25h-23.52c1.78-2.69,2.02-5.23,2.02-9.26Z"/>
  <path d="m152.08,33.31l-.43-10.18h.14c1.87,6.19,6.29,11.42,12.34,11.47,4.42.05,7.73-2.21,7.73-6.38s-2.5-6.1-9.46-8.69c-6.86-2.69-10.08-5.57-10.08-10.75s4.61-8.78,10.42-8.78c4.61,0,8.4,1.34,9.55,1.78l.34,10.27h-.14c-.72-4.9-4.32-11.52-10.18-11.52-4.03,0-7.44,1.92-7.44,6.24,0,5.23,5.62,6.77,10.8,8.83,8.02,3.17,9.36,6.82,9.36,10.03,0,6.24-5.14,9.5-11.62,9.5-5.04,0-8.83-1.1-11.33-1.82Z"/>
  <path d="m178.1,17.57c0-10.18,8.4-17.57,17.62-17.57,4.99,0,9.41,1.73,12.67,4.18v9.31h-.14c-1.39-7.2-7.73-12.77-14.21-12.77-7.01,0-11.67,6-11.67,13.83,0,8.83,6.19,18.87,15.79,18.87,5.04,0,10.13-3.02,12.53-9.07h.24c-2.78,7.82-9.12,10.8-15.27,10.8-10.32,0-17.57-8.54-17.57-17.57Z"/>
  <path d="m217.03,25.11v-15.07c0-4.03-.24-6.58-2.02-9.27h22.18v6.67h-.14c-.86-2.06-3.17-6.29-8.11-6.29-6.19,0-7.73,3.98-7.73,6.91,0,5.76,4.46,8.26,9.07,8.26,1.15,0,2.3-.14,3.41-.48v4.03c-5.9-.62-11.04-3.79-12.48-8.98v22.99h.1c12,0,15.84-3.55,17.09-6.77h.14v7.25h-23.52c1.78-2.69,2.02-5.23,2.02-9.26Z"/>
  <path d="m247.26,6.05v18.91c0,4.03.53,6.77,2.26,9.41h-4.99c1.78-2.69,2.26-5.38,2.26-9.41V5.33l-3.17-4.56h5.14l18.38,26.59.05-17.23c0-4.03-.48-6.67-2.26-9.36h4.99c-1.73,2.64-2.26,5.33-2.26,9.36l-.05,25.01h-.24l-20.11-29.09Z"/>
  <path d="m284.46,25.11V1.25h-.82c-5.95,0-8.3,3.5-9.26,6.58h-.14V.77h24.53v7.06h-.14c-.96-3.12-3.31-6.58-9.31-6.58h-.67v23.86c0,4.03.24,6.58,2.02,9.26h-8.21c1.78-2.69,2.02-5.23,2.02-9.26Z"/>
</svg>