<?xml version="1.0" encoding="UTF-8"?>
<svg id="Layer_2" data-name="Layer 2" xmlns="http://www.w3.org/2000/svg" viewBox="0 0 341.16 511.24">
  <defs>
    <style>
      .cls-1 {
        fill: #231f20;
      }
    </style>
  </defs>
  <path class="cls-1" d="m170.58,0C76.52,0,0,76.52,0,170.58v340.66h341.16V170.58C341.16,76.52,264.64,0,170.58,0Zm169.58,510.24H1V170.58C1,77.07,77.07,1,170.58,1s169.58,76.07,169.58,169.58v339.66Z"/>
  <path class="cls-1" d="m170.58,8.5C81.21,8.5,8.5,81.21,8.5,170.58v59.8h-.02s.02.03.02.03v238.8l-.03.19h.03v33.35h324.15V170.58c0-89.37-72.71-162.07-162.08-162.07Zm-.38,1v261.61c-16.08.12-30.42,7.68-39.75,19.4L37.73,79.6C66.72,37.4,115.27,9.63,170.2,9.51ZM9.5,170.58c0-33.42,10.23-64.49,27.73-90.25l92.7,210.86c-6.65,8.65-10.62,19.47-10.62,31.2v31.2h-6.25L9.5,230.43v-59.85Zm0,169.44l75.61,43.65v52.56l-75.61-22.22v-73.99Zm0,74.77l75.61,22.22v42.52l-75.61-10.76v-53.99Zm0,86.95v-32.2l75.61,10.76v20.23c0,.47.18.89.48,1.21H9.5Zm75.61-146.36v27.43l-75.61-43.65v-107.56l102.58,121.98h-25.18c-.99,0-1.79.8-1.79,1.79Zm170.19,145.15c0,.57-.47,1.04-1.04,1.04H86.9c-.57,0-1.04-.47-1.04-1.04v-145.15c0-.57.47-1.04,1.04-1.04h167.35c.57,0,1.04.47,1.04,1.04v145.15Zm76.36,1.21h-76.09c.29-.32.48-.74.48-1.21v-20.27l75.61-10.76v32.23Zm0-32.99l-75.61,10.76v-42.56l75.61-22.22v54.02Zm0-54.8l-75.61,22.22v-52.63l75.61-43.65v74.05Zm0-74.92l-75.61,43.65v-27.3c0-.99-.8-1.79-1.79-1.79h-25.41l102.81-122.25v107.7Zm0-168.44v59.58l-103.79,123.42h-6.02v-31.2c0-11.82-4.03-22.7-10.77-31.38l92.71-210.88c17.58,25.8,27.87,56.95,27.87,90.46Zm-28.39-91.12l-92.71,210.88c-9.33-11.62-23.6-19.1-39.6-19.21V9.51c54.88.13,103.4,27.84,132.4,69.99l-.09-.04Z"/>
  <path class="cls-1" d="m96.21,474.57h148.74v-93.24H96.21v93.24Zm.75-92.49h147.24v91.74H96.96v-91.74Z"/>
  <path class="cls-1" d="m98.06,472.72h145.04v-89.54H98.06v89.54Zm.75-88.79h143.54v88.04H98.81v-88.04Z"/>
</svg>